<?xml version="1.0" encoding="utf-8"?>
<!-- Generator: Adobe Illustrator 24.0.1, SVG Export Plug-In . SVG Version: 6.00 Build 0)  -->
<svg version="1.1" id="Layer_1" xmlns="http://www.w3.org/2000/svg" xmlns:xlink="http://www.w3.org/1999/xlink" x="0px" y="0px"
	 viewBox="0 0 500 500" style="enable-background:new 0 0 500 500;" xml:space="preserve">
<style type="text/css">
	.st0{fill:#7A7BF1;}
	.st1{fill:#FD6609;}
	.st2{fill:#790FDB;}
	.st3{fill:#F00675;}
</style>
<rect x="-32" y="-184" class="st0" width="120" height="99"/>
<rect x="101" y="-184" class="st1" width="120" height="99"/>
<rect x="233" y="-184" class="st2" width="120" height="99"/>
<rect x="389" y="-184" class="st3" width="120" height="99"/>
<g>
	<path class="st1" d="M497,136.1c0,117.9,0,235.7,0,353.6c-2.5,5.1-6.9,5.8-12,5.8c-155.9-0.1-311.9-0.1-467.8-0.1
		c-9.9,0-12.1-2.2-12.1-12.1c0-113.7,0-227.4,0-341c0-9.6,2.4-11.9,11.9-11.9c46.9,0,93.8,0,140.7,0c1.9,0,3.7,0,6,0
		c0-2.4,0-4.3,0-6.2c0-36.5,0-73-0.1-109.5c0-4.9,1.3-8.7,5.7-11.2c1.6,0,3.2,0,4.8,0c4.4,2.5,5.7,6.4,5.6,11.3
		c-0.2,6.7,0,13.3,0,20.2c5.5,0,10.3,0,15.7,0c0-6.9,0.1-13.6,0-20.3c-0.1-4.9,1.2-8.8,5.7-11.2c1.6,0,3.2,0,4.8,0
		c4.4,2.5,5.8,6.4,5.6,11.3c-0.2,6.7,0,13.3,0,20.2c5.4,0,10.3,0,15.7,0c0-6.9,0.1-13.6,0-20.3c-0.1-4.9,1.3-8.8,5.7-11.2
		c1.6,0,3.2,0,4.8,0c4.4,2.5,5.8,6.4,5.7,11.3c-0.2,6.7,0,13.3,0,20.2c5.4,0,10.3,0,15.7,0c0-6.9,0.1-13.6,0-20.2
		c-0.1-4.9,1.2-8.8,5.7-11.3c1.6,0,3.2,0,4.8,0c4.4,2.5,5.8,6.3,5.7,11.2c-0.2,6.7,0,13.4,0,20.1c5.5,0,10.5,0,15.7,0
		c0-6.9,0.1-13.5,0-20.1c-0.1-4.9,1.2-8.8,5.6-11.3c1.6,0,3.2,0,4.8,0c4.5,2.4,5.9,6.3,5.7,11.2c-0.2,6.7,0,13.4,0,20.1
		c5.5,0,10.5,0,15.7,0c0-6.9,0.1-13.5,0-20.1c-0.1-4.9,1.2-8.8,5.6-11.3c1.6,0,3.2,0,4.8,0c4.6,2.6,5.8,6.6,5.7,11.7
		c-0.1,36.5-0.1,72.9-0.1,109.4c0,1.8,0,3.7,0,5.8c2.6,0,4.5,0,6.4,0c46.9,0,93.7,0,140.6-0.1C490.4,130.3,494.5,131.4,497,136.1z
		 M480.7,479.3c0-89.8,0-179.4,0-269.1c-47.5,0-94.7,0-142.4,0c0,2.1,0,4,0,5.9c0,67.9,0,135.8,0,203.7c0,2.1,0,4.2-0.5,6.2
		c-0.9,4-3.8,6-7.7,5.9c-3.6-0.1-6.5-2-7.2-5.9c-0.4-2.2-0.6-4.4-0.6-6.7c0-88.9,0-177.8,0-266.6c0-2,0-4,0-5.9
		c-48,0-95.1,0-142.6,0c0,2.4,0,4.5,0,6.5c0,88.6,0,177.1,0,265.7c0,2.4-0.1,4.8-0.6,7.1c-0.8,3.8-3.7,5.7-7.3,5.8
		c-3.7,0-6.5-1.9-7.4-5.6c-0.5-2.1-0.6-4.4-0.6-6.6c0-67.9,0-135.8,0-203.7c0-1.9,0-3.7,0-5.6c-47.9,0-95.2,0-142.4,0
		c0,89.9,0,179.3,0,269c47.5,0,94.7,0,142.4,0c0-3.9,0-7.5,0-11.2c0-4.3-0.2-8.7,0.2-13c0.4-4.4,3.7-7.2,7.7-7.1
		c4.2,0.1,7,2.3,7.7,6.5c0.4,2.2,0.4,4.4,0.4,6.7c0.1,6,0,12,0,18c5.6,0,10.5,0,15.7,0c0-2.5,0-4.5,0-6.6c0.2-29.5-0.8-59,1.1-88.3
		c2.2-33.4,20.8-56.9,50.7-71.4c2-1,5.3-1.1,7.3-0.1c16.4,7.3,29.4,18.6,38.9,33.8c9.5,15.3,13.3,32.1,13.3,49.9
		c0,25.8,0,51.6,0,77.4c0,1.9,0,3.7,0,5.5c5.6,0,10.5,0,15.7,0c0-3.7-0.1-7.1,0-10.4c0.1-4.8,0-9.6,0.5-14.4c0.4-4,3.3-6.2,7.3-6.3
		c4.2-0.1,7,2.2,7.9,6.3c0.4,1.9,0.4,3.8,0.4,5.7c0,6.4,0,12.7,0,19.2C386.1,479.3,433.3,479.3,480.7,479.3z M21.1,193.5
		c47.6,0,94.9,0,142.2,0c0-15.8,0-31.2,0-46.8c-47.5,0-94.8,0-142.2,0C21.1,162.4,21.1,177.7,21.1,193.5z M338.5,193.5
		c47.8,0,95,0,142.2,0c0-15.8,0-31.3,0-46.6c-47.6,0-94.9,0-142.2,0C338.5,162.6,338.5,177.9,338.5,193.5z M258.8,130.1
		c21.6,0,42.3,0,63.1,0c0-15.8,0-31.4,0-46.9c-47.5,0-94.7,0-142,0c0,15.8,0,31.2,0,46.8c21.1,0,41.9,0,63.2,0c0-6.7,0-13,0-19.4
		c0-1.8-0.1-3.5,0.2-5.3c0.7-4.2,3.6-6.4,7.7-6.6c4.1-0.2,7.6,3.1,7.7,7.6C258.9,114.2,258.8,122,258.8,130.1z M290.2,479.3
		c0-26.4,0-52.5,0-78.7c-26.3,0-52.3,0-78.5,0c0,26.4,0,52.5,0,78.7C238.1,479.3,264.1,479.3,290.2,479.3z M211.9,384
		c26.3,0,52.1,0,78.3,0c-3.6-24.4-15.8-42.5-37-54.4c-1-0.6-2.9-0.7-3.9-0.2C227.8,341.3,215.5,359.4,211.9,384z M322.1,51.5
		c-47.7,0-94.8,0-142.2,0c0,5.2,0,10.1,0,15.2c47.5,0,94.7,0,142.2,0C322.1,61.5,322.1,56.6,322.1,51.5z"/>
	<path class="st1" d="M465.3,408.3c0,14.9,0,29.8,0,44.6c0,8-2.7,10.8-10.6,10.8c-29.9,0-59.8,0-89.8,0c-8.1,0-10.9-2.7-10.9-11.1
		c0-29.6,0-59.2,0-88.8c0-8.7,2.7-11.3,11.6-11.3c29.4,0,58.9,0,88.3,0c8.6,0,11.3,2.7,11.3,11.1
		C465.3,378.5,465.3,393.4,465.3,408.3z M370.3,384c26.5,0,52.5,0,78.8,0c0-5.2,0-10,0-15.1c-26.4,0-52.5,0-78.8,0
		C370.3,374,370.3,378.8,370.3,384z M385.4,447.5c0-15.8,0-31.4,0-46.9c-5.3,0-10.1,0-15.1,0c0,15.8,0,31.2,0,46.9
		C375.5,447.5,380.4,447.5,385.4,447.5z M417.2,447.5c0-15.8,0-31.4,0-46.9c-5.3,0-10.2,0-15.1,0c0,15.8,0,31.2,0,46.9
		C407.3,447.5,412.1,447.5,417.2,447.5z M433.9,400.6c0,15.9,0,31.4,0,46.9c5.3,0,10.1,0,15.1,0c0-15.8,0-31.2,0-46.9
		C443.9,400.6,439.1,400.6,433.9,400.6z"/>
	<path class="st1" d="M92.5,463.7c-15,0-30.1,0-45.1,0c-7.9,0-10.6-2.8-10.6-10.7c0-29.9,0-59.8,0-89.8c0-7.9,2.8-10.7,10.7-10.7
		c29.9,0,59.8,0,89.8,0c7.8,0,10.7,2.9,10.7,10.8c0,29.9,0,59.8,0,89.8c0,7.9-2.9,10.6-10.8,10.6
		C122.2,463.8,107.4,463.7,92.5,463.7z M131.8,368.8c-26.5,0-52.5,0-78.8,0c0,5.1,0,10,0,15.1c26.4,0,52.5,0,78.8,0
		C131.8,378.8,131.8,374,131.8,368.8z M52.9,447.5c5.4,0,10.3,0,15.2,0c0-15.9,0-31.4,0-46.9c-5.2,0-10.1,0-15.2,0
		C52.9,416.3,52.9,431.7,52.9,447.5z M84.7,400.4c0,15.9,0,31.4,0,47.1c5.2,0,10,0,15.1,0c0-15.8,0-31.4,0-47.1
		C94.7,400.4,90,400.4,84.7,400.4z M116.5,400.4c0,15.9,0,31.4,0,47.1c5.2,0,10,0,15.1,0c0-15.8,0-31.4,0-47.1
		C126.5,400.4,121.7,400.4,116.5,400.4z"/>
	<path class="st1" d="M36.7,281.3c0-15,0-30.1,0-45.1c0-7.6,2.9-10.5,10.4-10.6c30.1,0,60.2,0,90.2,0c7.5,0,10.5,3,10.6,10.4
		c0.1,30.1,0.1,60.2,0,90.2c0,7.6-3,10.5-10.4,10.5c-30.1,0-60.2,0-90.2,0c-7.6,0-10.5-2.9-10.5-10.4
		C36.7,311.3,36.7,296.3,36.7,281.3z M52.9,257c26.4,0,52.5,0,78.6,0c0-5.2,0-10.1,0-15.1c-26.3,0-52.4,0-78.6,0
		C52.9,247,52.9,251.9,52.9,257z M84.8,273.6c0,15.9,0,31.4,0,47c5.2,0,10.1,0,15,0c0-15.8,0-31.4,0-47
		C94.7,273.6,89.9,273.6,84.8,273.6z M131.6,320.6c0-16,0-31.4,0-46.9c-5.2,0-10.1,0-15,0c0,15.8,0,31.4,0,46.9
		C121.8,320.6,126.6,320.6,131.6,320.6z M68.1,320.5c0-15.9,0-31.4,0-46.9c-5.2,0-10.1,0-15.2,0c0,15.7,0,31.2,0,46.9
		C58.1,320.5,63,320.5,68.1,320.5z"/>
	<path class="st1" d="M465.3,281.2c0,15,0,30.1,0,45.1c0,7.6-2.8,10.5-10.4,10.5c-30.1,0-60.2,0-90.2,0c-7.5,0-10.5-2.9-10.6-10.4
		c-0.1-30.1-0.1-60.2,0-90.2c0-7.6,3-10.5,10.4-10.6c30.1,0,60.2,0,90.2,0c7.6,0,10.5,2.9,10.5,10.4
		C465.3,251.1,465.3,266.1,465.3,281.2z M449,242c-26.4,0-52.5,0-78.6,0c0,5.2,0,10.1,0,15.1c26.3,0,52.4,0,78.6,0
		C449,251.9,449,247,449,242z M417.2,320.5c0-15.9,0-31.4,0-46.9c-5.2,0-10.1,0-15.2,0c0,15.7,0,31.2,0,46.9
		C407.2,320.5,412,320.5,417.2,320.5z M449,320.5c0-15.9,0-31.4,0-46.9c-5.2,0-10.1,0-15.2,0c0,15.7,0,31.2,0,46.9
		C438.9,320.5,443.8,320.5,449,320.5z M370.4,273.6c0,16,0,31.4,0,46.9c5.2,0,10.1,0,15.1,0c0-15.7,0-31.2,0-46.9
		C380.4,273.6,375.5,273.6,370.4,273.6z"/>
	<path class="st1" d="M251.2,162.1c30.5,0.2,55.7,25.5,55.4,55.9c-0.3,30.4-25.3,55.2-55.6,55.3c-30.4,0-55.7-25.3-55.6-55.7
		C195.5,187.2,220.8,162,251.2,162.1z M250.9,178.2c-21.7,0.1-39.3,17.6-39.4,39.4c-0.1,21.9,17.7,39.7,39.6,39.7
		c21.7-0.1,39.3-17.7,39.4-39.4C290.6,196,272.8,178.1,250.9,178.2z"/>
</g>
</svg>
