<?xml version="1.0" encoding="utf-8"?>
<!-- Generator: Adobe Illustrator 24.0.1, SVG Export Plug-In . SVG Version: 6.00 Build 0)  -->
<svg version="1.1" id="Layer_1" xmlns="http://www.w3.org/2000/svg" xmlns:xlink="http://www.w3.org/1999/xlink" x="0px" y="0px"
	 viewBox="0 0 500 500" style="enable-background:new 0 0 500 500;" xml:space="preserve">
<style type="text/css">
	.st0{fill:#7A7BF1;}
	.st1{fill:#FD6609;}
	.st2{fill:#790FDB;}
	.st3{fill:#F00675;}
</style>
<rect x="-32" y="-184" class="st0" width="120" height="99"/>
<rect x="101" y="-184" class="st1" width="120" height="99"/>
<rect x="233" y="-184" class="st2" width="120" height="99"/>
<rect x="389" y="-184" class="st3" width="120" height="99"/>
<g>
	<path class="st2" d="M247.1,94.1c1.3,2.1,2.9,4,4.6,5.9c2.3,2.6,4.8,4.9,7.4,7L247.1,94.1z"/>
	<path class="st2" d="M449.7,334.1c-0.2-19.9-15.6-37.4-35.4-39.9c-11.4-1.5-23.1-0.7-34.7-0.9c-5-0.1-10,0-15.3,0
		c0-14-0.2-27.5,0-41c0.2-15.1-5.3-27.3-16.8-37.1c-26.7-22.7-82.8-71-82.9-72.4c-0.1-2-0.5-7.1-1.3-13.3c21.1,7.8,45.8,4,63.8-12
		c9.3-8.3,15.6-18.8,18.8-30c-3.2,6.4-7.5,12.2-13.2,17.3c-21.1,18.7-52.1,19.1-73.4,2.2c-2.6-2.1-5.1-4.4-7.4-7
		c-1.7-1.9-3.2-3.9-4.6-5.9c-16-23.4-12.5-55.6,9.3-75c5.6-5,12-8.7,18.7-11.1c-11.5,1.8-22.6,6.8-32,15.1
		c-25.2,22.4-28.2,60.6-7.3,86.6c-0.1,10.8-1,35.4-3.1,37.2c-26.3,22.3-52.3,45-78.7,67.1c-12.5,10.5-18.7,23.3-18.2,39.6
		c0.4,13,0.1,26.1,0.1,39.6c-14,0-27.4,0-40.7,0c-26.5,0-44.8,18.3-44.8,44.8c0,41.4,0,82.9,0,124.3c0,2.2,0,4.5,0.4,6.7
		C53.6,483.8,65,493,80.7,493c112.9,0,225.9,0,338.8,0c1,0,2.1,0,3.1-0.1c14.7-0.6,27-12.6,27.1-27.3C450,421.8,450,378,449.7,334.1
		z M135.7,464.3H78.9V338.6c0-11.5,5.3-16.8,17-16.8h39.8V464.3z M278.6,462.2c0,0.6-0.1,1.2-0.2,2.1h-56.6
		c-0.1-0.7-0.3-1.2-0.3-1.8c0-23.3-0.1-46.6,0-69.9c0.1-14.1,10.7-25.7,24.8-27.7c13.3-1.9,26.7,6.5,30.8,19.6
		c0.8,2.7,1.4,5.5,1.4,8.3C278.7,415.9,278.6,439,278.6,462.2z M335.7,459.4v4.7h-28.5v-4.7c0-22,0-44,0-65.9
		c-0.1-29.9-22-54-51.7-57.2c-28.1-3-54.5,16.1-60.9,44.4c-1,4.4-1.4,9.1-1.4,13.7c-0.1,21.6-0.1,43.1-0.1,64.6v5.3h-28.5v-4.9
		c0-69.1,0.1-138.2-0.1-207.2c0-6.5,2.2-11.3,7.1-15.5c25.5-21.6,50.8-43.4,76.2-65.2c0.7-0.6,1.4-1.1,2.5-1.9
		c4,3.4,8,6.9,12.1,10.3c22.1,18.9,44.2,37.9,66.4,56.8c4.9,4.2,7.1,9,7.1,15.5C335.7,321.2,335.7,390.3,335.7,459.4z M421.2,463
		c0,0.3-0.1,0.6-0.2,1.2h-56.6V321.8h17.3c8.3,0,16.6-0.1,25,0c8.4,0.1,14.5,6,14.5,14.2C421.3,378.4,421.3,420.7,421.2,463z"/>
	<path class="st2" d="M250.1,250.5c4.8,0,9.5-0.1,14.3,0c8,0.2,14.2,6.4,14.3,14.1c0.1,7.8-6.1,14.2-14,14.3c-9.7,0.2-19.3,0.2-29,0
		c-8-0.1-14.1-6.6-14-14.3c0.1-7.8,6.2-13.9,14.3-14.1C240.6,250.4,245.4,250.5,250.1,250.5z"/>
	<path class="st2" d="M282.8,91.1l-1.9-19.4l-17-9.4l17.9-7.8l3.7-19.1L298.4,50l19.3-2.4l-9.9,16.8l8.2,17.6l-19-4.2L282.8,91.1z
		 M271.9,62.7l12.4,6.9l1.4,14.1L296,74l13.8,3.1l-6-12.8L311,52l-14.1,1.7l-9.4-10.6L284.8,57L271.9,62.7z"/>
</g>
</svg>
