<?xml version="1.0" encoding="utf-8"?>
<!-- Generator: Adobe Illustrator 24.0.1, SVG Export Plug-In . SVG Version: 6.00 Build 0)  -->
<svg version="1.1" id="Layer_1" xmlns="http://www.w3.org/2000/svg" xmlns:xlink="http://www.w3.org/1999/xlink" x="0px" y="0px"
	 viewBox="0 0 500 500" style="enable-background:new 0 0 500 500;" xml:space="preserve">
<style type="text/css">
	.st0{fill:#7A7BF1;}
	.st1{fill:#FD6609;}
	.st2{fill:#790FDB;}
	.st3{fill:#F00675;}
</style>
<g>
	<path class="st0" d="M496,484.3c-2.3,3.8-5.8,4.8-10.2,4.8c-157.3-0.1-314.5-0.1-471.8-0.1c-1.3,0-2.6,0.1-3.8-0.1
		c-3.9-0.8-6.3-3.2-6.2-7.3c0.1-4.1,2.6-6.5,6.7-6.9c2.7-0.3,5.4,0,8.3,0c0-67.1,0-133.9,0-201.5c-2.4,0-4.9,0.1-7.3,0
		c-6.3-0.4-9.3-4.8-6.8-10.6c10-22.8,20.2-45.6,30.3-68.4c1.8-4,5.2-4.8,9.1-4.8c13.9,0,27.9,0,41.8,0c34.1,0,68.2,0,102.3,0.1
		c3.3,0,5.6-0.8,8-3.2c14.3-14.5,28.7-28.9,43.1-43.1c2.4-2.3,3.2-4.7,3.2-8c-0.1-24.5-0.1-49-0.1-73.5c0-8.8,2-10.8,10.7-10.8
		c16,0,32,0,48,0c7.2,0,9.6,2.4,9.7,9.4c0.1,11.4,0.1,22.7,0,34.1c0,7.1-2.4,9.3-9.7,9.3c-12.8,0-25.6,0-38.4,0c-1.7,0-3.4,0-5.8,0
		c0,6.8,0.6,13.2-0.1,19.5c-1.5,11.8,2.4,20.4,11.5,28.3c12.4,10.8,23.4,23.2,35.3,34.7c1.8,1.8,4.9,3.1,7.4,3.1
		c47.6,0.2,95.1,0.2,142.7,0c6.4,0,9.9,2.2,12.4,8c8.9,20.7,18.2,41.3,27.4,61.8c0.6,1.4,1.5,2.7,2.3,4c0,1.9,0,3.8,0,5.8
		c-3.7,5.6-9.9,3.9-15.1,4.5c0,67.2,0,134,0,201c5.6,0.5,11.8-1.4,15.1,5C496,481.1,496,482.7,496,484.3z M322,203.9
		c0.7,1.2,0.9,1.7,1.2,2c17,17,33.9,34,51,50.9c1.3,1.3,3.6,1.9,5.5,2c12.2,0.2,24.3,0.1,36.5,0.1c4,0,8.2-0.5,11.9,0.5
		c2.3,0.6,4.9,3.2,5.7,5.5c0.6,1.8-0.8,5.1-2.4,6.6c-1.5,1.4-4.4,1.8-6.7,1.8c-16,0.1-32,0-48,0.2c-4.7,0.1-8.1-1.4-11.4-4.7
		c-37.1-37.2-74.2-74.4-111.4-111.5c-1.3-1.3-2.7-2.6-4.6-4.3c-1.5,1.8-2.5,3.3-3.7,4.5c-37.1,37.2-74.3,74.3-111.4,111.5
		c-3.2,3.2-6.5,4.6-11,4.5c-27.9-0.1-55.7-0.1-83.6-0.1c-1.9,0-3.8,0-5.6,0c0,67.5,0,134.3,0,201c49.1,0,97.9,0,146.9,0
		c0-6.9,0-13.5,0-20.1c0-8.2,2.1-10.3,10.1-10.4c1.6,0,3.1,0,5.3,0c0-2.2,0-3.9,0-5.6c0-17.8,0-35.6,0-53.3
		c0-8.2,2.1-10.3,10.1-10.3c29,0,58,0,87,0c7.8,0,9.9,2.2,9.9,10.1c0,17.9,0,35.9,0,53.8c0,1.7,0.2,3.4,0.3,5.1
		c1.1,0.1,1.7,0.2,2.4,0.2c11.9,0.4,12.8,1.2,12.8,13c0,5.8,0,11.7,0,17.4c49.6,0,98.3,0,147,0c0-67.1,0-133.8,0-200.8
		c-1.5-0.1-2.8-0.2-4-0.3c-7.9-0.1-11.2-2.4-11-7.4c0.2-4.9,3.5-7,11.1-7c5,0,10,0,15.6,0c-0.9-2.3-1.4-3.6-2-4.9
		c-6.7-15.2-13.6-30.3-20.2-45.6c-1.5-3.6-3.5-4.5-7.2-4.5c-40.2,0.1-80.4,0.1-120.6,0.1C325.9,203.9,324.4,203.9,322,203.9z
		 M178.4,204.5c-1.7-0.4-2.1-0.5-2.5-0.5c-42,0-83.9,0-125.9-0.1c-2.8,0-3.9,1.3-4.9,3.5c-6.9,15.8-14,31.6-21,47.4
		c-0.5,1.1-0.8,2.3-1.3,3.8c1.3,0.1,2.3,0.3,3.2,0.3c31.6,0,63.1,0.1,94.7-0.1c2.1,0,4.5-1.4,6.1-2.9c12.1-11.9,24.1-24,36.1-35.9
		C167.7,214.9,172.7,210,178.4,204.5z M195.7,474.4c36.4,0,72.3,0,108.4,0c0-5.5,0-10.6,0-15.8c-36.3,0-72.2,0-108.4,0
		C195.7,463.9,195.7,469,195.7,474.4z M242.4,443.7c0-18.4,0-36.3,0-54.3c-10.6,0-20.9,0-31.1,0c0,18.4,0,36.3,0,54.3
		C221.8,443.7,231.8,443.7,242.4,443.7z M257.6,389.2c0,18.5,0,36.4,0,54.4c10.6,0,20.7,0,31.1,0c0-18.3,0-36.2,0-54.4
		C278.2,389.2,268,389.2,257.6,389.2z M296.4,89.1c0-8.1,0-15.8,0-23.4c-13.2,0-26,0-38.9,0c0,8,0,15.6,0,23.4
		C270.5,89.1,283.2,89.1,296.4,89.1z"/>
	<path class="st0" d="M388.7,374.6c17.3,0,34.6,0,51.9,0c6.8,0,9.2,2.4,9.2,9.3c0,14.1,0,28.2,0,42.3c0,6.4-2.6,9-9.1,9
		c-34.7,0-69.5,0-104.2,0c-6.3,0-8.8-2.5-8.9-8.6c-0.1-14.4-0.1-28.8,0-43.2c0-6.3,2.4-8.7,8.7-8.7
		C353.8,374.5,371.2,374.6,388.7,374.6z M381.1,420.6c0-10.5,0-20.8,0-31.3c-13.1,0-25.9,0-38.6,0c0,10.6,0,20.9,0,31.3
		C355.4,420.6,368,420.6,381.1,420.6z M435.1,420.6c0-10.7,0-21,0-31.3c-13.2,0-26,0-38.7,0c0,10.6,0,20.9,0,31.3
		C409.4,420.6,422,420.6,435.1,420.6z"/>
	<path class="st0" d="M111.5,297.5c17.1,0,34.3,0,51.4,0c7.3,0,9.4,2.2,9.4,9.5c0,13.9,0,27.9,0,41.8c0,6.9-2.4,9.3-9.2,9.3
		c-34.6,0-69.2,0-103.8,0c-6.8,0-9.2-2.6-9.3-9.4c0-14.1,0-28.2,0-42.3c0-6.5,2.5-8.9,9-9C76.6,297.5,94,297.5,111.5,297.5z
		 M103.7,343.5c0-10.7,0-20.9,0-31.2c-13.1,0-25.9,0-38.8,0c0,10.6,0,20.8,0,31.2C77.9,343.5,90.6,343.5,103.7,343.5z M157.6,312.2
		c-13.2,0-25.9,0-38.9,0c0,10.6,0,20.8,0,31.2c13.1,0,25.8,0,38.9,0C157.6,333,157.6,322.8,157.6,312.2z"/>
	<path class="st0" d="M388.7,297.5c17.1,0,34.3,0,51.4,0c7.5,0,9.7,2.3,9.7,9.7c0,13.8,0,27.5,0,41.3c0,7-2.5,9.6-9.6,9.6
		c-34.4,0-68.9,0-103.3,0c-7,0-9.4-2.4-9.4-9.2c-0.1-14.1,0-28.2,0-42.3c0-7,2.2-9.2,9.2-9.2C354.1,297.5,371.4,297.5,388.7,297.5z
		 M381.2,343.5c0-10.7,0-20.9,0-31.1c-13.2,0-26,0-38.9,0c0,10.6,0,20.7,0,31.1C355.4,343.5,368.1,343.5,381.2,343.5z M435.1,343.5
		c0-10.7,0-20.9,0-31.2c-13.1,0-25.9,0-38.8,0c0,10.6,0,20.8,0,31.2C409.4,343.5,422.1,343.5,435.1,343.5z"/>
	<path class="st0" d="M103.9,420.4c0-10.5,0-20.6,0-31.1c-12.9,0-25.8,0-39,0c0,10.2,0,20.5,0,31.4c2.8,0,5.5-0.1,8.1,0
		c4.1,0.3,6.5,2.6,6.8,6.7c0.3,3.9-2.4,7.3-6.5,7.5c-5.4,0.3-10.9,0.3-16.3,0c-4.2-0.2-6.8-3-6.9-7.3c-0.1-15.4-0.2-30.7,0-46.1
		c0.1-4.8,3.2-7.1,8.9-7.1c28.7,0,57.3,0,86,0c6.4,0,12.8-0.1,19.2,0c5.4,0.1,7.9,2.5,8,8c0.1,14.7,0.1,29.5,0,44.2
		c0,5.8-2.7,8.4-8.7,8.4c-19.4,0.1-38.8,0-58.1,0c-5.5,0-8.8-2.3-9.1-6.5C96.2,423.8,99.1,421.4,103.9,420.4z M157.6,420.7
		c0-10.9,0-21.1,0-31.4c-13.2,0-26,0-38.9,0c0,10.5,0,20.7,0,31.1c1,0.1,1.7,0.3,2.5,0.3C133.1,420.7,145.1,420.7,157.6,420.7z"/>
	<path class="st0" d="M303.4,280.9c0.7,29-23.3,53.5-53,54.1c-28.9,0.6-52.9-22.9-53.9-52.6c-0.9-28.9,22.9-53.5,52.7-54.2
		C278.3,227.4,302.6,251.1,303.4,280.9z M250.6,242.5c-21.3-0.6-39.2,16.7-39.7,38.4c-0.5,21.2,17,39.2,38.6,39.6
		c21.1,0.4,38.7-16.6,39.4-38.2C289.7,261.1,272.4,243.1,250.6,242.5z"/>
	<path class="st0" d="M242.7,289.1c0-1.8,0.1-3.5,0-5.3c-0.3-4.7,1.6-7.9,6-9.8c4.4-1.9,8.5-4.3,12.9-6.3c4.2-1.9,8.1-0.8,10,2.6
		c2,3.6,0.6,7.8-3.4,10.2c-0.3,0.2-0.6,0.3-0.9,0.4c-7.7,2.4-11.7,6.8-10.4,15.6c0.7,4.5-2.8,7.5-6.8,7.5c-4.2,0.1-7-2.8-7.3-7.7
		C242.7,293.9,242.8,291.5,242.7,289.1C242.8,289.1,242.7,289.1,242.7,289.1z"/>
</g>
<rect x="-32" y="-184" class="st0" width="120" height="99"/>
<rect x="101" y="-184" class="st1" width="120" height="99"/>
<rect x="233" y="-184" class="st2" width="120" height="99"/>
<rect x="389" y="-184" class="st3" width="120" height="99"/>
</svg>
