<?xml version="1.0" encoding="utf-8"?>
<!-- Generator: Adobe Illustrator 24.0.1, SVG Export Plug-In . SVG Version: 6.00 Build 0)  -->
<svg version="1.1" id="Layer_1" xmlns="http://www.w3.org/2000/svg" xmlns:xlink="http://www.w3.org/1999/xlink" x="0px" y="0px"
	 viewBox="0 0 500 500" style="enable-background:new 0 0 500 500;" xml:space="preserve">
<style type="text/css">
	.st0{fill:#7A7BF1;}
	.st1{fill:#FD6609;}
	.st2{fill:#790FDB;}
	.st3{fill:#F00675;}
</style>
<rect x="-32" y="-184" class="st0" width="120" height="99"/>
<rect x="101" y="-184" class="st1" width="120" height="99"/>
<rect x="233" y="-184" class="st2" width="120" height="99"/>
<rect x="389" y="-184" class="st3" width="120" height="99"/>
<g>
	<path class="st3" d="M5,475.1c0-8,0-16,0-23.9c1.5-2.4,2.6-5.3,4.7-7c3.3-2.5,3.5-5.6,3.5-9.2c-0.1-59.9-0.1-119.7,0.1-179.5
		c0-4.1,1.2-8.5,2.9-12.3c5.2-11.3,11.2-22.2,16.5-33.4c5.2-11,13.8-16.2,25.9-16.1c15.8,0.2,31.6,0,47.4,0c1.7,0,3.4-0.1,5-0.2
		c0.8-11.3,0.8-11.4,8-20c8.8-10.6,17.8-20.9,26.3-31.7c6-7.6,12.7-13.4,23.3-13.4c0-17.5,0.1-34.6-0.1-51.6c0-1.1-1.9-2.8-3.2-3.1
		c-7.8-2.3-15.6-4.4-23.5-6.4c-8.9-2.3-14.1-8.3-14.1-16.4c0-8.1,5.1-13.9,14.1-16.3c33.7-9,67.4-18,101.1-27.2
		c5.1-1.4,9.9-1.4,15,0c20,5.5,40,10.7,60,16.1c14.5,3.9,29,7.6,43.3,11.9c11.3,3.4,15.8,17,8,25.3c-4.2,4.5-4.7,8.9-4.5,14.1
		c0.1,4.1,0.1,8.3,0,12.4c-0.1,4.2,0.9,7.7,4.4,10.6c3.8,3.2,4.1,8.1,1.3,11.5c-3,3.7-7.6,4-11.9,0.7c-7.2-5.4-10.1-12.9-10.1-21.7
		c0-5.8,0-11.7,0-18c-4.9,1.3-9,2.6-13.2,3.4c-2.6,0.5-3.2,1.8-3.2,4.3c0.1,16.1,0,32.2,0.2,48.4c0,1.4,1.4,3.2,2.6,4.2
		c3,2.5,6.7,4.3,9.5,7c11.6,11.2,22.9,22.7,34.3,34.1c6,6,13.7,11.2,10.2,22.2c2.6,0,4.3,0,6,0c16,0,31.9,0,47.9,0
		c11.3,0,19.5,4.8,24.5,15.1c5.6,11.5,11.6,22.7,17,34.3c1.8,3.9,3,8.5,3,12.7c0.2,59.5,0.2,119.1,0.1,178.6c0,3.9,0.1,7.4,3.8,10
		c1.7,1.3,3.4,3.9,3.5,6c0.4,8.7,1.1,17.6-0.1,26.1c-1.1,7.7-8.1,11.4-17.6,11.4c-33.8,0-67.7,0-101.5,0.1c-1.8,0-3.8,0.3-5.3,1.2
		c-3.3,2.1-6.3,4.6-9.5,6.9c-73.4,0-146.9,0-220.3,0c-2.5-1.6-5.5-2.8-7.4-4.9c-2.4-2.8-5-3.3-8.3-3.3c-33,0.1-66-0.1-99,0.2
		C15.3,488.2,8.4,484.7,5,475.1z M160.6,259.5c0,59.9,0,119.4,0,179.1c16.3,0,32.3,0,48.7,0c0-2.2,0-4.1,0-6c0-29.2,0-58.4,0-87.6
		c0-10,2.3-12.3,12.5-12.3c19.1,0,38.3,0,57.4,0c9.5,0,11.9,2.5,11.9,11.9c0,29.5,0,59,0,88.6c0,1.8,0,3.7,0,5.4
		c16.8,0,32.8,0,48.7,0c0-59.9,0-119.3,0-179C280,259.5,220.4,259.5,160.6,259.5z M470.6,259.6c-38.3,0-76,0-113.7,0
		c0,60,0,119.5,0,179c38.1,0,75.9,0,113.7,0C470.6,378.7,470.6,319.3,470.6,259.6z M29.9,259.4c0,60,0,119.5,0,179.2
		c38.1,0,75.8,0,113.7,0c0-59.9,0-119.4,0-179.2C105.7,259.4,68.1,259.4,29.9,259.4z M137.2,177c74.9,0,148.8,0,223.1,0
		c-10.2-10.3-19.9-20.4-30-30.1c-1.5-1.4-4.4-2.1-6.6-2.1c-51.5-0.1-103.1-0.1-154.6,0c-2.3,0-5.5,0.9-6.9,2.5
		C153.9,156.8,145.9,166.7,137.2,177z M145.2,50.4c1.3,0.8,1.6,1.1,2,1.2c33.4,9,66.7,18,100.1,26.9c2.2,0.6,4.7,0.4,6.9-0.2
		c29.7-7.9,59.4-15.9,89.1-23.9c3.7-1,7.4-2.2,11.9-3.5c-1.4-0.7-1.8-0.9-2.2-1c-33.7-9.1-67.4-18.1-101.1-27.1
		c-1.1-0.3-2.5-0.3-3.7,0C214.2,31.8,180,41,145.2,50.4z M315.3,79c-1.9,0.4-3.2,0.8-4.6,1.1c-17.8,4.8-35.6,9.8-53.6,14.2
		c-4.4,1.1-9.5,1-14-0.1c-17.9-4.4-35.7-9.4-53.6-14.2c-1.4-0.4-2.9-0.5-4.3-0.8c0,16.6,0,32.8,0,48.9c43.5,0,86.7,0,130,0
		C315.3,111.7,315.3,95.7,315.3,79z M144.2,479.5c70.9,0,141.5,0,212,0c0-8.2,0-16.1,0-24c-70.8,0-141.3,0-212,0
		C144.2,463.6,144.2,471.3,144.2,479.5z M225.6,438.5c16.7,0,32.7,0,48.7,0c0.2-0.8,0.4-1.3,0.4-1.7c0-28.1,0-56.1,0.1-84.2
		c0-3.2-1.4-3.7-4.1-3.6c-13.4,0.1-26.8,0.2-40.2-0.1c-4-0.1-5.1,1.2-5.1,5.1c0.2,25.7,0.1,51.4,0.1,77
		C225.6,433.4,225.6,435.8,225.6,438.5z M127.9,209.7c81.8,0,163.2,0,244.6,0c0-5.5,0-10.6,0-15.8c-81.7,0-163,0-244.6,0
		C127.9,199.2,127.9,204.3,127.9,209.7z M356.4,226.8c-71,0-141.6,0-212.1,0c0,5.4,0,10.5,0,15.6c70.9,0,141.4,0,212.1,0
		C356.4,237,356.4,232.1,356.4,226.8z M373.1,242.4c30.9,0,61.4,0,92.6,0c-4.5-8.9-8.8-17.2-12.8-25.7c-2.3-4.8-5.7-6.7-11-6.7
		c-16.1,0.2-32.2,0-48.3,0.1c-1.4,0-2.8,0.2-4.2,0.3c-1.3,9.8-6.7,15.1-16.3,16.4C373.1,231.9,373.1,236.9,373.1,242.4z M110.9,210
		c-15.3,0-30.5,0.7-45.5-0.2c-11-0.7-17.4,2.9-21.1,13.1c-2.4,6.6-6.1,12.8-9.4,19.5c31.3,0,61.8,0,92.4,0c0-5.5,0-10.7,0-15.9
		C117.3,225.4,112.3,219.6,110.9,210z M21.5,471.2c35.6,0,70.7,0,105.9,0c0-5.4,0-10.5,0-15.6c-35.4,0-70.6,0-105.9,0
		C21.5,460.9,21.5,465.8,21.5,471.2z M373,471.2c35.6,0,70.7,0,105.8,0c0-5.5,0-10.5,0-15.5c-35.5,0-70.6,0-105.8,0
		C373,461,373,465.9,373,471.2z"/>
	<path class="st3" d="M217.6,291.7c0-2.7-0.1-5.4,0-8.1c0.3-4.6,3.2-7.6,7.4-7.9c4.5-0.3,8.4,2.5,8.7,7c0.4,6,0.3,12.1,0,18.2
		c-0.2,4.3-4.1,7.4-8.1,7.3c-4.3,0-7.7-3.4-8-7.9C217.5,297.4,217.6,294.5,217.6,291.7z"/>
	<path class="st3" d="M282.8,291.8c0,2.9,0.2,5.7,0,8.6c-0.3,4.5-3.9,7.8-8.1,7.8c-4,0-7.8-3.2-8-7.5c-0.3-5.9-0.3-11.8,0-17.7
		c0.2-4.6,3.9-7.6,8.4-7.4c4.5,0.1,7.5,3.2,7.8,8C283,286.4,282.8,289.1,282.8,291.8C282.8,291.8,282.8,291.8,282.8,291.8z"/>
	<path class="st3" d="M430.2,300.1c0-2.9-0.1-5.7,0-8.6c0.3-4.4,3.4-7.6,7.5-7.8c4-0.3,8.1,2.6,8.4,6.9c0.4,6.3,0.4,12.8-0.1,19.1
		c-0.4,4.3-4.3,6.9-8.6,6.5c-4-0.3-7-3.2-7.3-7.5C430,305.9,430.2,303,430.2,300.1z"/>
	<path class="st3" d="M446.4,349c0,2.7,0.2,5.4,0,8.1c-0.4,5-3.7,8.1-8.3,8.1c-4.6-0.1-7.8-3.3-7.9-8.3c-0.1-5.3-0.1-10.5,0-15.8
		c0.1-5,3.5-8.4,7.9-8.4c4.4-0.1,7.9,3.3,8.3,8.2C446.6,343.6,446.4,346.3,446.4,349z"/>
	<path class="st3" d="M381.2,299.5c0-2.9-0.2-5.8,0.1-8.6c0.4-4.2,3.6-7.1,7.6-7.2c3.9-0.2,7.8,2.5,8.1,6.6c0.5,6.5,0.5,13,0,19.5
		c-0.3,4.2-4,6.6-8.1,6.4c-4.1-0.2-7-2.9-7.6-7.2c-0.1-0.5-0.1-1-0.1-1.4c0-2.7,0-5.4,0-8.1C381.1,299.5,381.1,299.5,381.2,299.5z"
		/>
	<path class="st3" d="M430.2,398.2c0-2.9-0.1-5.7,0-8.6c0.3-4.5,3.3-7.5,7.6-7.7c4.3-0.2,8.1,2.4,8.4,6.8c0.5,6.2,0.4,12.4,0,18.6
		c-0.3,4.3-4.2,7.2-8.3,7.1c-4.3-0.2-7.5-3.4-7.8-8.1C430,403.6,430.2,400.9,430.2,398.2C430.2,398.2,430.2,398.2,430.2,398.2z"/>
	<path class="st3" d="M381.2,348.8c0-3-0.3-6.1,0.1-9.1c0.4-4.1,3.8-7.1,7.8-7c4.1,0.1,7.5,2.1,7.8,6.3c0.5,6.6,0.5,13.4,0,20
		c-0.3,4.1-4.2,6.6-8.3,6.2c-4.2-0.4-6.8-2.7-7.3-6.9C381,355.2,381.2,352,381.2,348.8z"/>
	<path class="st3" d="M381.2,398c0-3-0.2-6.1,0.1-9.1c0.4-4.2,3.6-7,7.7-7c4.4,0,7.7,2.2,8.1,6.5c0.5,6.5,0.4,13,0,19.5
		c-0.3,4.1-4.3,6.9-8.2,6.4c-4.3-0.5-7.1-2.8-7.5-7.3C381,404.1,381.2,401,381.2,398C381.2,398,381.2,398,381.2,398z"/>
	<path class="st3" d="M70.3,300.3c0,2.7,0.1,5.4,0,8.1c-0.3,4.5-3.3,7.5-7.5,7.7c-4.3,0.2-8.1-2.4-8.4-6.8
		c-0.5-6.2-0.4-12.4-0.1-18.6c0.3-4.3,4.2-7.3,8.2-7.2c4.3,0.1,7.6,3.4,7.8,8.1C70.4,294.6,70.3,297.5,70.3,300.3z"/>
	<path class="st3" d="M70.3,349.2c0,2.7,0.1,5.4,0,8.1c-0.3,4.6-3.2,7.6-7.4,7.9c-4.3,0.3-8.2-2.3-8.5-6.6c-0.5-6.3-0.5-12.7,0-19.1
		c0.3-4.3,4.4-7.1,8.5-6.8c4.1,0.3,7.2,3.5,7.5,7.9C70.4,343.5,70.3,346.4,70.3,349.2z"/>
	<path class="st3" d="M70.3,397.9c0,2.9,0.1,5.7,0,8.6c-0.3,4.4-3.4,7.6-7.5,7.8c-4,0.3-8.1-2.6-8.4-6.9c-0.4-6.3-0.4-12.8,0-19.1
		c0.3-4.3,4.3-6.9,8.6-6.5c4.1,0.3,6.9,3.1,7.3,7.4c0,0.3,0,0.6,0,1C70.3,392.9,70.3,395.4,70.3,397.9
		C70.3,397.9,70.3,397.9,70.3,397.9z"/>
	<path class="st3" d="M119.3,299.8c0,3,0.2,6.1-0.1,9.1c-0.4,4.4-3,6.9-7.4,7.3c-4.3,0.3-8-2.3-8.4-6.7c-0.5-6.2-0.5-12.4-0.1-18.6
		c0.3-4.4,4.1-7.3,8.1-7.2c4.1,0.1,7.4,3.1,7.8,7.6C119.5,294.1,119.3,297,119.3,299.8C119.3,299.8,119.3,299.8,119.3,299.8z"/>
	<path class="st3" d="M119.3,349.4c0,2.9,0.2,5.7-0.1,8.6c-0.4,4.3-3.4,7.1-7.5,7.3c-4.3,0.2-8.1-2.4-8.3-6.8
		c-0.4-6.3-0.4-12.7,0.1-19.1c0.3-4.1,4.1-6.8,8-6.7c4,0.1,7.3,3,7.7,7.1C119.5,343,119.2,346.2,119.3,349.4
		C119.2,349.4,119.2,349.4,119.3,349.4z"/>
	<path class="st3" d="M119.3,398.5c0,2.9,0.2,5.7,0,8.6c-0.4,4.5-3.3,6.8-7.5,7.3c-4,0.4-8-2.6-8.3-6.9c-0.4-6.2-0.4-12.4,0-18.6
		c0.3-4.4,4-7.1,8.2-7c4.2,0.1,7.3,3,7.7,7.6C119.5,392.5,119.3,395.5,119.3,398.5C119.3,398.5,119.3,398.5,119.3,398.5z"/>
</g>
</svg>
